<svg width="43" height="38" xmlns="http://www.w3.org/2000/svg">
 <!-- Created with SVG Editor - http://github.com/mzalive/SVG Editor/ -->

 <g>
  <title>background</title>
  <rect fill="none" id="canvas_background" height="40" width="45" y="-1" x="-1"/>
 </g>
 <g>
  <title>Layer 1</title>
  <g id="svg_32">
   <g transform="matrix(0.06781683510376357,0,0,0.06781683510376357,0,0) " id="svg_5">
    <g id="svg_6">
     <circle fill="#ffc107" id="svg_7" r="16.695" cy="392.778585" cx="496.725419"/>
    </g>
   </g>
   <g transform="matrix(0.06781683510376357,0,0,0.06781683510376357,0,0) " id="svg_8">
    <g id="svg_9">
     <circle fill="#ffc107" id="svg_10" r="16.695" cy="392.778585" cx="285.254419"/>
    </g>
   </g>
   <g transform="matrix(0.06781683510376357,0,0,0.06781683510376357,0,0) " id="svg_11">
    <g id="svg_12">
     <path fill="#ffc107" id="svg_13" d="m496.721419,309.301585l-211.47,0c-18.803,0 -36.115,6.324 -50.085,16.853l0,-100.328c0,-7.571 -5.098,-14.195 -12.412,-16.135c-7.294,-1.934 -15.01,1.282 -18.782,7.853l-133.56,233.73c-6.341,11.126 1.691,24.977 14.499,24.977l66.78,0c27.322,0 51.543,-13.251 66.78,-33.6c15.237,20.35 39.458,33.6 66.78,33.6l211.47,0c46.03,0 83.475,-37.445 83.475,-83.475c0.001,-46.03 -37.444,-83.475 -83.475,-83.475zm-211.47,133.56c-27.618,0 -50.085,-22.467 -50.085,-50.085s22.467,-50.085 50.085,-50.085s50.085,22.467 50.085,50.085s-22.467,50.085 -50.085,50.085zm211.47,0c-27.618,0 -50.085,-22.467 -50.085,-50.085s22.467,-50.085 50.085,-50.085s50.085,22.467 50.085,50.085s-22.467,50.085 -50.085,50.085z"/>
    </g>
   </g>
   <g transform="matrix(0.06781683510376357,0,0,0.06781683510376357,0,0) " id="svg_14">
    <g id="svg_15">
     <path fill="#ffc107" id="svg_16" d="m496.721419,75.570585l-100.17,0c-7.663,0 -14.337,5.212 -16.195,12.646l-30.228,120.915l-14.792,0l0,-16.695c0,-9.222 -7.478,-16.695 -16.695,-16.695s-16.695,7.473 -16.695,16.695l0,25.73c-19.927,11.569 -33.39,33.091 -33.39,57.745l0,1.333c5.468,-0.787 11.012,-1.333 16.695,-1.333l211.47,0c17.939,0 34.88,4.182 50.085,11.436l0,-161.692c0.001,-27.618 -22.467,-50.085 -50.085,-50.085zm-16.695,116.866c0,9.22 -7.475,16.695 -16.695,16.695l-78.789,0l25.041,-100.17l53.748,0c9.22,0 16.695,7.475 16.695,16.695l0,66.78z"/>
    </g>
   </g>
   <g transform="matrix(0.06781683510376357,0,0,0.06781683510376357,0,0) " id="svg_17"/>
   <g transform="matrix(0.06781683510376357,0,0,0.06781683510376357,0,0) " id="svg_18"/>
   <g transform="matrix(0.06781683510376357,0,0,0.06781683510376357,0,0) " id="svg_19"/>
   <g transform="matrix(0.06781683510376357,0,0,0.06781683510376357,0,0) " id="svg_20"/>
   <g transform="matrix(0.06781683510376357,0,0,0.06781683510376357,0,0) " id="svg_21"/>
   <g transform="matrix(0.06781683510376357,0,0,0.06781683510376357,0,0) " id="svg_22"/>
   <g transform="matrix(0.06781683510376357,0,0,0.06781683510376357,0,0) " id="svg_23"/>
   <g transform="matrix(0.06781683510376357,0,0,0.06781683510376357,0,0) " id="svg_24"/>
   <g transform="matrix(0.06781683510376357,0,0,0.06781683510376357,0,0) " id="svg_25"/>
   <g transform="matrix(0.06781683510376357,0,0,0.06781683510376357,0,0) " id="svg_26"/>
   <g transform="matrix(0.06781683510376357,0,0,0.06781683510376357,0,0) " id="svg_27"/>
   <g transform="matrix(0.06781683510376357,0,0,0.06781683510376357,0,0) " id="svg_28"/>
   <g transform="matrix(0.06781683510376357,0,0,0.06781683510376357,0,0) " id="svg_29"/>
   <g transform="matrix(0.06781683510376357,0,0,0.06781683510376357,0,0) " id="svg_30"/>
   <g transform="matrix(0.06781683510376357,0,0,0.06781683510376357,0,0) " id="svg_31"/>
  </g>
 </g>
</svg>